<svg width="36" height="32" viewBox="0 0 36 32" fill="none" xmlns="http://www.w3.org/2000/svg">
<g id="Combined Shape 2">
<path id="Combined Shape" fill-rule="evenodd" clip-rule="evenodd" d="M35.04 0V3.2H31.84V28.8H35.04V32H25.44V28.8H28.64V3.2H25.44V0H35.04ZM17.8716 14.7358C17.157 12.9438 16.4478 11.2265 15.7437 9.61576C15.2668 8.52497 14.7851 7.4734 14.2985 6.41123L14.2985 6.41109L14.2983 6.41073C14.0665 5.90469 13.8336 5.39624 13.5996 4.88H8.832L8.58371 5.41156L8.58369 5.41162C7.92534 6.82052 7.28804 8.18437 6.67184 9.61576C5.97848 11.2265 5.2744 12.9358 4.55952 14.7278C3.84464 16.5198 3.11408 18.4492 2.3676 20.4758C1.62128 22.5026 0.832 24.72 0 27.12H5.1836C5.41864 26.32 5.68 25.5623 5.96776 24.7518C6.19967 24.0985 6.42821 23.4383 6.65337 22.7879L6.65338 22.7879L6.81544 22.32H15.4561L15.6206 22.795L15.6207 22.7952C15.845 23.4433 16.0727 24.101 16.3038 24.7518C16.5915 25.5623 16.8529 26.32 17.0879 27.12H22.4317C21.5996 24.72 20.8102 22.5066 20.0635 20.4799C19.3167 18.4532 18.5861 16.5278 17.8716 14.7358ZM7.96776 18.3199C8.3089 17.3599 8.64481 16.4424 8.9756 15.5677C9.30632 14.693 9.61032 13.8931 9.88768 13.1678C10.165 12.4426 10.4103 11.8026 10.6235 11.2479C10.8367 10.6933 10.9967 10.2558 11.1035 9.93544C11.2318 10.2558 11.4025 10.6933 11.6158 11.2479C11.829 11.8026 12.0796 12.4426 12.3677 13.1678C12.6558 13.8931 12.9598 14.693 13.2798 15.5676C13.5998 16.4423 13.9303 17.3599 14.2714 18.3199H7.96776Z" fill="#9EABB2"/>
</g>
</svg>
