<svg width="50" height="32" viewBox="0 0 50 32" fill="none" xmlns="http://www.w3.org/2000/svg">
<path id="Shape" fill-rule="evenodd" clip-rule="evenodd" d="M49.0587 14.072C46.4744 9.84534 42.9996 6.44927 38.6348 3.88384C34.2697 1.31831 29.6603 0.0354004 24.8061 0.0354004C19.9519 0.0354004 15.3424 1.31782 10.9773 3.88384C6.61207 6.44927 3.13745 9.84534 0.553503 14.072C0.184533 14.7179 0 15.3547 0 15.9824C0 16.61 0.184533 17.2468 0.553503 17.8926C3.13745 22.1194 6.61207 25.5157 10.9773 28.0806C15.3424 30.6464 19.9519 31.9283 24.8061 31.9283C29.6604 31.9283 34.2698 30.6507 38.6348 28.0946C42.9996 25.5383 46.475 22.1375 49.0587 17.8926C49.4278 17.2468 49.6122 16.6103 49.6122 15.9824C49.6122 15.3547 49.4278 14.7179 49.0587 14.072ZM18.8672 6.49989C20.519 4.8481 22.4984 4.02192 24.8058 4.02192C25.1748 4.02192 25.4888 4.15147 25.7473 4.4097C26.0054 4.66803 26.1352 4.98192 26.1352 5.35099C26.1352 5.72035 26.0054 6.03404 25.7479 6.29198C25.4897 6.5506 25.1756 6.67976 24.8065 6.67976C23.2193 6.67976 21.8623 7.24296 20.7366 8.36859C19.6105 9.49489 19.0478 10.8513 19.0478 12.4385C19.0478 12.8081 18.9182 13.1216 18.66 13.3801C18.4014 13.6388 18.0878 13.7679 17.7187 13.7679C17.3493 13.7679 17.0356 13.6385 16.7771 13.3801C16.5185 13.1216 16.3893 12.8077 16.3893 12.4385C16.3893 10.1316 17.2155 8.15176 18.8672 6.49989ZM24.8061 28.3857C29.1251 28.3857 33.1348 27.264 36.8356 25.0221C40.5363 22.7794 43.6138 19.7663 46.0681 15.9824C43.2627 11.6267 39.7465 8.36849 35.5201 6.20946C36.646 8.1284 37.2092 10.2053 37.2092 12.4384C37.2092 15.8533 35.9959 18.774 33.5685 21.2008C31.141 23.6275 28.2208 24.8414 24.8061 24.8414C21.3917 24.8414 18.4706 23.6282 16.0437 21.2008C13.6169 18.7733 12.4031 15.8533 12.4031 12.4384C12.4031 10.2053 12.9662 8.12868 14.092 6.20946C9.86541 8.36849 6.34938 11.6264 3.54395 15.9824C5.99864 19.7663 9.07636 22.7794 12.7769 25.0221C16.4775 27.2647 20.4872 28.3857 24.8061 28.3857Z" fill="#9EABB2"/>
</svg>
